<mxfile host="Electron" modified="2023-09-25T12:57:54.225Z" agent="Mozilla/5.0 (Windows NT 10.0; Win64; x64) AppleWebKit/537.36 (KHTML, like Gecko) draw.io/21.6.8 Chrome/114.0.5735.289 Electron/25.5.0 Safari/537.36" etag="uWtEXmWwBejrbWmO5-3X" version="21.6.8" type="device">
  <diagram name="Page-1" id="8PABz1pPHIwfwkRb8vM2">
    <mxGraphModel dx="1036" dy="623" grid="1" gridSize="10" guides="1" tooltips="1" connect="1" arrows="1" fold="1" page="1" pageScale="1" pageWidth="850" pageHeight="1100" math="0" shadow="0">
      <root>
        <mxCell id="0" />
        <mxCell id="1" parent="0" />
        <mxCell id="BbtwM7DxwK2IOLBfTYx6-1" value="" style="ellipse;html=1;shape=startState;fillColor=#000000;strokeColor=#FF0000;" parent="1" vertex="1">
          <mxGeometry x="383" y="110" width="30" height="30" as="geometry" />
        </mxCell>
        <mxCell id="BbtwM7DxwK2IOLBfTYx6-2" value="" style="edgeStyle=orthogonalEdgeStyle;html=1;verticalAlign=bottom;endArrow=open;endSize=8;strokeColor=#FF0000;rounded=0;" parent="1" source="BbtwM7DxwK2IOLBfTYx6-1" edge="1">
          <mxGeometry relative="1" as="geometry">
            <mxPoint x="398" y="180" as="targetPoint" />
          </mxGeometry>
        </mxCell>
        <mxCell id="BbtwM7DxwK2IOLBfTYx6-3" value="Login" style="rounded=1;whiteSpace=wrap;html=1;arcSize=40;fontColor=#000000;fillColor=#ffffc0;strokeColor=#FF0000;" parent="1" vertex="1">
          <mxGeometry x="338" y="180" width="120" height="40" as="geometry" />
        </mxCell>
        <mxCell id="BbtwM7DxwK2IOLBfTYx6-4" value="" style="edgeStyle=orthogonalEdgeStyle;html=1;verticalAlign=bottom;endArrow=open;endSize=8;strokeColor=#FF0000;rounded=0;" parent="1" source="BbtwM7DxwK2IOLBfTYx6-3" edge="1">
          <mxGeometry relative="1" as="geometry">
            <mxPoint x="398" y="260" as="targetPoint" />
          </mxGeometry>
        </mxCell>
        <mxCell id="BbtwM7DxwK2IOLBfTYx6-5" value="Manage Vendor" style="rounded=1;whiteSpace=wrap;html=1;arcSize=40;fontColor=#000000;fillColor=#ffffc0;strokeColor=#FF0000;" parent="1" vertex="1">
          <mxGeometry x="340" y="260" width="120" height="40" as="geometry" />
        </mxCell>
        <mxCell id="BbtwM7DxwK2IOLBfTYx6-6" value="" style="edgeStyle=orthogonalEdgeStyle;html=1;verticalAlign=bottom;endArrow=open;endSize=8;strokeColor=#FF0000;rounded=0;" parent="1" source="BbtwM7DxwK2IOLBfTYx6-5" edge="1">
          <mxGeometry relative="1" as="geometry">
            <mxPoint x="400" y="330" as="targetPoint" />
          </mxGeometry>
        </mxCell>
        <mxCell id="BbtwM7DxwK2IOLBfTYx6-10" value="" style="edgeStyle=orthogonalEdgeStyle;rounded=0;orthogonalLoop=1;jettySize=auto;html=1;strokeColor=#FF0000;" parent="1" source="BbtwM7DxwK2IOLBfTYx6-7" target="BbtwM7DxwK2IOLBfTYx6-8" edge="1">
          <mxGeometry relative="1" as="geometry" />
        </mxCell>
        <mxCell id="BbtwM7DxwK2IOLBfTYx6-22" value="" style="edgeStyle=orthogonalEdgeStyle;rounded=0;orthogonalLoop=1;jettySize=auto;html=1;strokeColor=#FF0000;" parent="1" source="BbtwM7DxwK2IOLBfTYx6-7" target="BbtwM7DxwK2IOLBfTYx6-20" edge="1">
          <mxGeometry relative="1" as="geometry" />
        </mxCell>
        <mxCell id="BbtwM7DxwK2IOLBfTYx6-34" value="" style="edgeStyle=orthogonalEdgeStyle;rounded=0;orthogonalLoop=1;jettySize=auto;html=1;strokeColor=#FF0000;" parent="1" source="BbtwM7DxwK2IOLBfTYx6-7" target="BbtwM7DxwK2IOLBfTYx6-32" edge="1">
          <mxGeometry relative="1" as="geometry" />
        </mxCell>
        <mxCell id="BbtwM7DxwK2IOLBfTYx6-7" value="Action" style="rhombus;whiteSpace=wrap;html=1;strokeColor=#FF0000;" parent="1" vertex="1">
          <mxGeometry x="360" y="330" width="80" height="40" as="geometry" />
        </mxCell>
        <mxCell id="BbtwM7DxwK2IOLBfTYx6-8" value="Add Vendor" style="rounded=1;whiteSpace=wrap;html=1;arcSize=40;fontColor=#000000;fillColor=#ffffc0;strokeColor=#FF0000;" parent="1" vertex="1">
          <mxGeometry x="130" y="330" width="120" height="40" as="geometry" />
        </mxCell>
        <mxCell id="BbtwM7DxwK2IOLBfTYx6-9" value="" style="edgeStyle=orthogonalEdgeStyle;html=1;verticalAlign=bottom;endArrow=open;endSize=8;strokeColor=#FF0000;rounded=0;" parent="1" source="BbtwM7DxwK2IOLBfTYx6-8" edge="1">
          <mxGeometry relative="1" as="geometry">
            <mxPoint x="190" y="410" as="targetPoint" />
          </mxGeometry>
        </mxCell>
        <mxCell id="BbtwM7DxwK2IOLBfTYx6-11" value="Fill Vendor Info" style="rounded=1;whiteSpace=wrap;html=1;arcSize=40;fontColor=#000000;fillColor=#ffffc0;strokeColor=#FF0000;" parent="1" vertex="1">
          <mxGeometry x="130" y="410" width="120" height="40" as="geometry" />
        </mxCell>
        <mxCell id="BbtwM7DxwK2IOLBfTYx6-12" value="" style="edgeStyle=orthogonalEdgeStyle;html=1;verticalAlign=bottom;endArrow=open;endSize=8;strokeColor=#FF0000;rounded=0;" parent="1" source="BbtwM7DxwK2IOLBfTYx6-11" edge="1">
          <mxGeometry relative="1" as="geometry">
            <mxPoint x="190" y="490" as="targetPoint" />
          </mxGeometry>
        </mxCell>
        <mxCell id="BbtwM7DxwK2IOLBfTYx6-18" style="edgeStyle=orthogonalEdgeStyle;rounded=0;orthogonalLoop=1;jettySize=auto;html=1;entryX=0;entryY=0.5;entryDx=0;entryDy=0;exitX=0;exitY=0.5;exitDx=0;exitDy=0;strokeColor=#FF0000;" parent="1" source="BbtwM7DxwK2IOLBfTYx6-13" target="BbtwM7DxwK2IOLBfTYx6-8" edge="1">
          <mxGeometry relative="1" as="geometry">
            <mxPoint x="140" y="510" as="sourcePoint" />
          </mxGeometry>
        </mxCell>
        <mxCell id="BbtwM7DxwK2IOLBfTYx6-13" value="is valid" style="rhombus;whiteSpace=wrap;html=1;fontColor=#000000;fillColor=#ffffc0;strokeColor=#FF0000;" parent="1" vertex="1">
          <mxGeometry x="150" y="490" width="80" height="40" as="geometry" />
        </mxCell>
        <mxCell id="BbtwM7DxwK2IOLBfTYx6-15" value="yes" style="edgeStyle=orthogonalEdgeStyle;html=1;align=left;verticalAlign=top;endArrow=open;endSize=8;strokeColor=#FF0000;rounded=0;" parent="1" source="BbtwM7DxwK2IOLBfTYx6-13" edge="1">
          <mxGeometry x="-1" relative="1" as="geometry">
            <mxPoint x="190" y="590" as="targetPoint" />
          </mxGeometry>
        </mxCell>
        <mxCell id="BbtwM7DxwK2IOLBfTYx6-16" value="Add" style="rounded=1;whiteSpace=wrap;html=1;arcSize=40;fontColor=#000000;fillColor=#ffffc0;strokeColor=#FF0000;" parent="1" vertex="1">
          <mxGeometry x="140" y="590" width="100" height="40" as="geometry" />
        </mxCell>
        <mxCell id="BbtwM7DxwK2IOLBfTYx6-17" value="" style="edgeStyle=orthogonalEdgeStyle;html=1;verticalAlign=bottom;endArrow=open;endSize=8;strokeColor=#FF0000;rounded=0;entryX=0;entryY=0.5;entryDx=0;entryDy=0;exitX=0.5;exitY=1;exitDx=0;exitDy=0;" parent="1" source="BbtwM7DxwK2IOLBfTYx6-16" target="BbtwM7DxwK2IOLBfTYx6-49" edge="1">
          <mxGeometry relative="1" as="geometry">
            <mxPoint x="190" y="690" as="targetPoint" />
          </mxGeometry>
        </mxCell>
        <mxCell id="Irb_D-qtNFcuaQIhQ6re-8" value="success" style="edgeLabel;html=1;align=center;verticalAlign=middle;resizable=0;points=[];" parent="BbtwM7DxwK2IOLBfTYx6-17" vertex="1" connectable="0">
          <mxGeometry x="-0.4142" y="1" relative="1" as="geometry">
            <mxPoint as="offset" />
          </mxGeometry>
        </mxCell>
        <mxCell id="BbtwM7DxwK2IOLBfTYx6-19" value="No" style="text;html=1;align=center;verticalAlign=middle;resizable=0;points=[];autosize=1;strokeColor=none;fillColor=none;" parent="1" vertex="1">
          <mxGeometry x="110" y="488" width="40" height="30" as="geometry" />
        </mxCell>
        <mxCell id="BbtwM7DxwK2IOLBfTYx6-20" value="Update Vendor" style="rounded=1;whiteSpace=wrap;html=1;arcSize=40;fontColor=#000000;fillColor=#ffffc0;strokeColor=#FF0000;" parent="1" vertex="1">
          <mxGeometry x="340" y="400" width="120" height="40" as="geometry" />
        </mxCell>
        <mxCell id="BbtwM7DxwK2IOLBfTYx6-21" value="" style="edgeStyle=orthogonalEdgeStyle;html=1;verticalAlign=bottom;endArrow=open;endSize=8;strokeColor=#FF0000;rounded=0;" parent="1" source="BbtwM7DxwK2IOLBfTYx6-20" edge="1">
          <mxGeometry relative="1" as="geometry">
            <mxPoint x="400" y="480" as="targetPoint" />
          </mxGeometry>
        </mxCell>
        <mxCell id="BbtwM7DxwK2IOLBfTYx6-23" value="View Vendor List" style="rounded=1;whiteSpace=wrap;html=1;arcSize=40;fontColor=#000000;fillColor=#ffffc0;strokeColor=#FF0000;" parent="1" vertex="1">
          <mxGeometry x="340" y="480" width="120" height="40" as="geometry" />
        </mxCell>
        <mxCell id="BbtwM7DxwK2IOLBfTYx6-24" value="" style="edgeStyle=orthogonalEdgeStyle;html=1;verticalAlign=bottom;endArrow=open;endSize=8;strokeColor=#FF0000;rounded=0;" parent="1" source="BbtwM7DxwK2IOLBfTYx6-23" edge="1">
          <mxGeometry relative="1" as="geometry">
            <mxPoint x="400" y="560" as="targetPoint" />
          </mxGeometry>
        </mxCell>
        <mxCell id="BbtwM7DxwK2IOLBfTYx6-25" value="Select Vendor" style="rounded=1;whiteSpace=wrap;html=1;arcSize=40;fontColor=#000000;fillColor=#ffffc0;strokeColor=#FF0000;" parent="1" vertex="1">
          <mxGeometry x="340" y="560" width="120" height="40" as="geometry" />
        </mxCell>
        <mxCell id="BbtwM7DxwK2IOLBfTYx6-26" value="" style="edgeStyle=orthogonalEdgeStyle;html=1;verticalAlign=bottom;endArrow=open;endSize=8;strokeColor=#FF0000;rounded=0;" parent="1" source="BbtwM7DxwK2IOLBfTYx6-25" edge="1">
          <mxGeometry relative="1" as="geometry">
            <mxPoint x="400" y="640" as="targetPoint" />
          </mxGeometry>
        </mxCell>
        <mxCell id="BbtwM7DxwK2IOLBfTYx6-37" value="" style="edgeStyle=orthogonalEdgeStyle;rounded=0;orthogonalLoop=1;jettySize=auto;html=1;strokeColor=#FF0000;" parent="1" source="BbtwM7DxwK2IOLBfTYx6-32" target="BbtwM7DxwK2IOLBfTYx6-35" edge="1">
          <mxGeometry relative="1" as="geometry" />
        </mxCell>
        <mxCell id="BbtwM7DxwK2IOLBfTYx6-32" value="Delete Vendor" style="rounded=1;whiteSpace=wrap;html=1;arcSize=40;fontColor=#000000;fillColor=#ffffc0;strokeColor=#FF0000;" parent="1" vertex="1">
          <mxGeometry x="530" y="330" width="120" height="40" as="geometry" />
        </mxCell>
        <mxCell id="BbtwM7DxwK2IOLBfTYx6-35" value="View Vendor List" style="rounded=1;whiteSpace=wrap;html=1;arcSize=40;fontColor=#000000;fillColor=#ffffc0;strokeColor=#FF0000;" parent="1" vertex="1">
          <mxGeometry x="530" y="400" width="120" height="40" as="geometry" />
        </mxCell>
        <mxCell id="BbtwM7DxwK2IOLBfTYx6-36" value="" style="edgeStyle=orthogonalEdgeStyle;html=1;verticalAlign=bottom;endArrow=open;endSize=8;strokeColor=#FF0000;rounded=0;" parent="1" source="BbtwM7DxwK2IOLBfTYx6-35" edge="1">
          <mxGeometry relative="1" as="geometry">
            <mxPoint x="590" y="470" as="targetPoint" />
          </mxGeometry>
        </mxCell>
        <mxCell id="BbtwM7DxwK2IOLBfTYx6-38" value="Select Vendor" style="rounded=1;whiteSpace=wrap;html=1;arcSize=40;fontColor=#000000;fillColor=#ffffc0;strokeColor=#FF0000;" parent="1" vertex="1">
          <mxGeometry x="530" y="470" width="120" height="40" as="geometry" />
        </mxCell>
        <mxCell id="BbtwM7DxwK2IOLBfTYx6-39" value="" style="edgeStyle=orthogonalEdgeStyle;html=1;verticalAlign=bottom;endArrow=open;endSize=8;strokeColor=#FF0000;rounded=0;" parent="1" source="BbtwM7DxwK2IOLBfTYx6-38" edge="1">
          <mxGeometry relative="1" as="geometry">
            <mxPoint x="590" y="550" as="targetPoint" />
          </mxGeometry>
        </mxCell>
        <mxCell id="BbtwM7DxwK2IOLBfTYx6-41" value="" style="edgeStyle=orthogonalEdgeStyle;html=1;verticalAlign=bottom;endArrow=open;endSize=8;strokeColor=#FF0000;rounded=0;" parent="1" source="BbtwM7DxwK2IOLBfTYx6-40" edge="1">
          <mxGeometry relative="1" as="geometry">
            <mxPoint x="400" y="900" as="targetPoint" />
          </mxGeometry>
        </mxCell>
        <mxCell id="Irb_D-qtNFcuaQIhQ6re-6" value="success" style="edgeLabel;html=1;align=center;verticalAlign=middle;resizable=0;points=[];" parent="BbtwM7DxwK2IOLBfTYx6-41" vertex="1" connectable="0">
          <mxGeometry x="-0.2171" y="1" relative="1" as="geometry">
            <mxPoint as="offset" />
          </mxGeometry>
        </mxCell>
        <mxCell id="BbtwM7DxwK2IOLBfTYx6-42" value="Delete" style="rounded=1;whiteSpace=wrap;html=1;arcSize=40;fontColor=#000000;fillColor=#ffffc0;strokeColor=#FF0000;" parent="1" vertex="1">
          <mxGeometry x="530" y="630" width="120" height="40" as="geometry" />
        </mxCell>
        <mxCell id="BbtwM7DxwK2IOLBfTYx6-43" value="" style="edgeStyle=orthogonalEdgeStyle;html=1;verticalAlign=bottom;endArrow=open;endSize=8;strokeColor=#FF0000;rounded=0;entryX=1;entryY=0.5;entryDx=0;entryDy=0;exitX=0.5;exitY=1;exitDx=0;exitDy=0;" parent="1" source="BbtwM7DxwK2IOLBfTYx6-42" target="BbtwM7DxwK2IOLBfTYx6-49" edge="1">
          <mxGeometry relative="1" as="geometry">
            <mxPoint x="590" y="730" as="targetPoint" />
          </mxGeometry>
        </mxCell>
        <mxCell id="Irb_D-qtNFcuaQIhQ6re-7" value="success" style="edgeLabel;html=1;align=center;verticalAlign=middle;resizable=0;points=[];" parent="BbtwM7DxwK2IOLBfTYx6-43" vertex="1" connectable="0">
          <mxGeometry x="-0.421" y="-1" relative="1" as="geometry">
            <mxPoint as="offset" />
          </mxGeometry>
        </mxCell>
        <mxCell id="BbtwM7DxwK2IOLBfTYx6-46" value="Is selected" style="rhombus;whiteSpace=wrap;html=1;fontColor=#000000;fillColor=#ffffc0;strokeColor=#FF0000;" parent="1" vertex="1">
          <mxGeometry x="550" y="550" width="80" height="40" as="geometry" />
        </mxCell>
        <mxCell id="BbtwM7DxwK2IOLBfTYx6-47" value="no" style="edgeStyle=orthogonalEdgeStyle;html=1;align=left;verticalAlign=bottom;endArrow=open;endSize=8;strokeColor=#FF0000;rounded=0;entryX=1;entryY=0.5;entryDx=0;entryDy=0;exitX=1;exitY=0.5;exitDx=0;exitDy=0;" parent="1" source="BbtwM7DxwK2IOLBfTYx6-46" target="BbtwM7DxwK2IOLBfTYx6-35" edge="1">
          <mxGeometry x="-1" relative="1" as="geometry">
            <mxPoint x="730" y="570" as="targetPoint" />
            <Array as="points">
              <mxPoint x="660" y="570" />
              <mxPoint x="660" y="420" />
            </Array>
          </mxGeometry>
        </mxCell>
        <mxCell id="BbtwM7DxwK2IOLBfTYx6-48" value="yes" style="edgeStyle=orthogonalEdgeStyle;html=1;align=left;verticalAlign=top;endArrow=open;endSize=8;strokeColor=#FF0000;rounded=0;" parent="1" source="BbtwM7DxwK2IOLBfTYx6-46" edge="1">
          <mxGeometry x="-1" relative="1" as="geometry">
            <mxPoint x="590" y="630" as="targetPoint" />
          </mxGeometry>
        </mxCell>
        <mxCell id="BbtwM7DxwK2IOLBfTYx6-49" value="" style="ellipse;html=1;shape=endState;fillColor=#000000;strokeColor=#FF0000;" parent="1" vertex="1">
          <mxGeometry x="385" y="900" width="30" height="30" as="geometry" />
        </mxCell>
        <mxCell id="BbtwM7DxwK2IOLBfTYx6-50" value="" style="swimlane;startSize=0;strokeColor=#FF0000;" parent="1" vertex="1">
          <mxGeometry x="80" y="90" width="610" height="900" as="geometry" />
        </mxCell>
        <mxCell id="Irb_D-qtNFcuaQIhQ6re-5" value="" style="edgeStyle=orthogonalEdgeStyle;rounded=0;orthogonalLoop=1;jettySize=auto;html=1;" parent="BbtwM7DxwK2IOLBfTYx6-50" source="BbtwM7DxwK2IOLBfTYx6-30" target="Irb_D-qtNFcuaQIhQ6re-2" edge="1">
          <mxGeometry relative="1" as="geometry" />
        </mxCell>
        <mxCell id="BbtwM7DxwK2IOLBfTYx6-30" value="Fill Update Info" style="rounded=1;whiteSpace=wrap;html=1;arcSize=40;fontColor=#000000;fillColor=#ffffc0;strokeColor=#FF0000;" parent="BbtwM7DxwK2IOLBfTYx6-50" vertex="1">
          <mxGeometry x="260" y="550" width="120" height="40" as="geometry" />
        </mxCell>
        <mxCell id="BbtwM7DxwK2IOLBfTYx6-40" value="Update" style="rounded=1;whiteSpace=wrap;html=1;arcSize=40;fontColor=#000000;fillColor=#ffffc0;strokeColor=#FF0000;" parent="BbtwM7DxwK2IOLBfTYx6-50" vertex="1">
          <mxGeometry x="260" y="700" width="120" height="40" as="geometry" />
        </mxCell>
        <mxCell id="Irb_D-qtNFcuaQIhQ6re-2" value="is valid" style="rhombus;whiteSpace=wrap;html=1;fontColor=#000000;fillColor=#ffffc0;strokeColor=#ff0000;" parent="BbtwM7DxwK2IOLBfTYx6-50" vertex="1">
          <mxGeometry x="280" y="630" width="80" height="40" as="geometry" />
        </mxCell>
        <mxCell id="Irb_D-qtNFcuaQIhQ6re-4" value="yes" style="edgeStyle=orthogonalEdgeStyle;html=1;align=left;verticalAlign=top;endArrow=open;endSize=8;strokeColor=#ff0000;rounded=0;" parent="BbtwM7DxwK2IOLBfTYx6-50" source="Irb_D-qtNFcuaQIhQ6re-2" edge="1">
          <mxGeometry x="-1" relative="1" as="geometry">
            <mxPoint x="320" y="700" as="targetPoint" />
          </mxGeometry>
        </mxCell>
        <mxCell id="9tlLhWlLidciJSokABG6-1" value="&lt;font style=&quot;font-size: 14px;&quot;&gt;Figure: Manage Vendor Activity Diagram&lt;/font&gt;" style="text;html=1;align=center;verticalAlign=middle;resizable=0;points=[];autosize=1;strokeColor=none;fillColor=none;" vertex="1" parent="BbtwM7DxwK2IOLBfTYx6-50">
          <mxGeometry x="180" y="860" width="270" height="30" as="geometry" />
        </mxCell>
        <mxCell id="Irb_D-qtNFcuaQIhQ6re-3" value="no" style="edgeStyle=orthogonalEdgeStyle;html=1;align=left;verticalAlign=bottom;endArrow=open;endSize=8;strokeColor=#ff0000;rounded=0;entryX=1;entryY=0.25;entryDx=0;entryDy=0;exitX=1;exitY=0.5;exitDx=0;exitDy=0;" parent="1" source="Irb_D-qtNFcuaQIhQ6re-2" target="BbtwM7DxwK2IOLBfTYx6-25" edge="1">
          <mxGeometry x="-1" relative="1" as="geometry">
            <mxPoint x="540" y="740" as="targetPoint" />
            <Array as="points">
              <mxPoint x="480" y="740" />
              <mxPoint x="480" y="570" />
            </Array>
          </mxGeometry>
        </mxCell>
      </root>
    </mxGraphModel>
  </diagram>
</mxfile>
